<svg width="64" height="64" viewBox="0 0 64 64" fill="none" xmlns="http://www.w3.org/2000/svg">
<path d="M17.6414 56C16.4138 56 15.3889 55.5889 14.5667 54.7667C13.7445 53.9444 13.3334 52.9196 13.3334 51.692V22.9747C13.3334 21.7471 13.7445 20.7222 14.5667 19.9C15.3889 19.0778 16.4138 18.6667 17.6414 18.6667H22.6667V17.3333C22.6667 14.7418 23.5745 12.5384 25.39 10.7233C27.2052 8.90778 29.4085 8 32 8C34.5916 8 36.7949 8.90778 38.61 10.7233C40.4256 12.5384 41.3334 14.7418 41.3334 17.3333V18.6667H46.3587C47.5863 18.6667 48.6111 19.0778 49.4334 19.9C50.2556 20.7222 50.6667 21.7471 50.6667 22.9747V51.692C50.6667 52.9196 50.2556 53.9444 49.4334 54.7667C48.6111 55.5889 47.5863 56 46.3587 56H17.6414ZM17.6414 53.3333H46.3587C46.7694 53.3333 47.1456 53.1624 47.4874 52.8207C47.8292 52.4789 48 52.1027 48 51.692V22.9747C48 22.564 47.8292 22.1878 47.4874 21.846C47.1456 21.5042 46.7694 21.3333 46.3587 21.3333H41.3334V28C41.3334 28.3796 41.206 28.6967 40.9514 28.9513C40.6967 29.206 40.3796 29.3333 40 29.3333C39.6205 29.3333 39.3034 29.206 39.0487 28.9513C38.794 28.6967 38.6667 28.3796 38.6667 28V21.3333H25.3334V28C25.3334 28.3796 25.206 28.6967 24.9514 28.9513C24.6967 29.206 24.3796 29.3333 24 29.3333C23.6205 29.3333 23.3034 29.206 23.0487 28.9513C22.794 28.6967 22.6667 28.3796 22.6667 28V21.3333H17.6414C17.2307 21.3333 16.8545 21.5042 16.5127 21.846C16.1709 22.1878 16 22.564 16 22.9747V51.692C16 52.1027 16.1709 52.4789 16.5127 52.8207C16.8545 53.1624 17.2307 53.3333 17.6414 53.3333ZM25.3334 18.6667H38.6667V17.3333C38.6667 15.4564 38.0249 13.876 36.7414 12.592C35.4574 11.3084 33.8769 10.6667 32 10.6667C30.1231 10.6667 28.5427 11.3084 27.2587 12.592C25.9752 13.876 25.3334 15.4564 25.3334 17.3333V18.6667Z" fill="black"/>
</svg>
