<svg width="42" height="42" viewBox="0 0 42 42" fill="none" xmlns="http://www.w3.org/2000/svg">
<path d="M21.688 23.036L22.648 22.716C22.264 23.0573 21.8373 23.3133 21.368 23.484C20.9413 23.6547 20.4293 23.74 19.832 23.74C18.5093 23.74 17.3787 23.292 16.44 22.396C15.544 21.5 15.096 20.2627 15.096 18.684C15.096 17.0627 15.5867 15.7613 16.568 14.78C17.592 13.756 18.8933 13.244 20.472 13.244C22.2213 13.244 23.6293 13.884 24.696 15.164C25.7627 16.444 26.296 18.1507 26.296 20.284C26.296 23.3987 25.3787 26.0227 23.544 28.156C21.752 30.2467 19.384 31.4627 16.44 31.804V28.284C18.0187 27.9853 19.2773 27.4093 20.216 26.556C21.1973 25.66 21.688 24.4867 21.688 23.036Z" fill="black"/>
</svg>
